<mxfile host="65bd71144e">
    <diagram id="UzRgSDPNoDhW7MEopuY8" name="Page-1">
        <mxGraphModel dx="1198" dy="802" grid="1" gridSize="10" guides="1" tooltips="1" connect="1" arrows="1" fold="1" page="1" pageScale="1" pageWidth="827" pageHeight="1169" math="0" shadow="0">
            <root>
                <mxCell id="0"/>
                <mxCell id="1" parent="0"/>
                <mxCell id="2" value="Enter Number Plate" style="text;html=1;strokeColor=none;fillColor=none;align=center;verticalAlign=middle;whiteSpace=wrap;rounded=0;" parent="1" vertex="1">
                    <mxGeometry x="360" y="50" width="80" height="30" as="geometry"/>
                </mxCell>
                <mxCell id="6" value="" style="endArrow=classic;startArrow=classic;html=1;" parent="1" edge="1">
                    <mxGeometry width="50" height="50" relative="1" as="geometry">
                        <mxPoint x="400" y="140" as="sourcePoint"/>
                        <mxPoint x="400" y="80" as="targetPoint"/>
                        <Array as="points"/>
                    </mxGeometry>
                </mxCell>
                <mxCell id="7" value="&lt;p style=&quot;line-height: 150%;&quot;&gt;&lt;/p&gt;&lt;ul style=&quot;line-height: 170%;&quot;&gt;&lt;li style=&quot;&quot;&gt;Car Number Plate&lt;/li&gt;&lt;/ul&gt;&lt;div style=&quot;text-align: center;&quot;&gt;&lt;span style=&quot;white-space: pre;&quot;&gt;&#9;&lt;/span&gt;Your car with NumberPlate ------------ has # out standing fines.&lt;br&gt;&lt;/div&gt;&lt;div&gt;&lt;br&gt;&lt;/div&gt;&lt;div&gt;&lt;ul&gt;&lt;li&gt;Out Standing Fines:&amp;nbsp;&lt;/li&gt;&lt;ul&gt;&lt;li&gt;1.&lt;/li&gt;&lt;li&gt;2.&lt;/li&gt;&lt;li&gt;3.&lt;/li&gt;&lt;/ul&gt;&lt;li&gt;Out Standing Amount:&lt;/li&gt;&lt;ul&gt;&lt;li&gt;R #####&lt;/li&gt;&lt;/ul&gt;&lt;/ul&gt;&lt;div&gt;&lt;br&gt;&lt;/div&gt;&lt;/div&gt;&lt;div&gt;&lt;br&gt;&lt;/div&gt;&lt;div style=&quot;text-align: center;&quot;&gt;PLEASE CONTACT YOUR LOCAL TRAFFIC DEPARTMENT TO SORT THIS OUT!&lt;/div&gt;&lt;p&gt;&lt;/p&gt;" style="text;html=1;strokeColor=none;fillColor=none;align=left;verticalAlign=middle;whiteSpace=wrap;rounded=0;" parent="1" vertex="1">
                    <mxGeometry x="305" y="150" width="195" height="340" as="geometry"/>
                </mxCell>
            </root>
        </mxGraphModel>
    </diagram>
</mxfile>